{
  "accessors": [
    {
      "bufferView": 2,
      "componentType": 5126,
      "count": 3801,
      "max": [
        24.4726505279541,
        2.183168888092041,
        21.83167839050293
      ],
      "min": [
        -24.472652435302734,
        -2.183173894882202,
        -21.83167839050293
      ],
      "type": "VEC3"
    },
    {
      "bufferView": 2,
      "byteOffset": 45612,
      "componentType": 5126,
      "count": 3801,
      "max": [
        1.0,
        1.0,
        1.0
      ],
      "min": [
        -1.0,
        -1.0,
        -1.0
      ],
      "type": "VEC3"
    },
    {
      "bufferView": 3,
      "componentType": 5126,
      "count": 3801,
      "max": [
        1.0,
        0.9999193549156189,
        0.9999994039535522,
        1.0
      ],
      "min": [
        -1.0,
        -0.9999993443489075,
        -0.9999961256980896,
        -1.0
      ],
      "type": "VEC4"
    },
    {
      "bufferView": 1,
      "componentType": 5126,
      "count": 3801,
      "max": [
        0.9869543313980103,
        0.9829496741294861
      ],
      "min": [
        0.013996647670865059,
        0.0032524229027330875
      ],
      "type": "VEC2"
    },
    {
      "bufferView": 1,
      "byteOffset": 30408,
      "componentType": 5126,
      "count": 3801,
      "max": [
        0.9869543313980103,
        0.9829496741294861
      ],
      "min": [
        0.013996647670865059,
        0.0032524229027330875
      ],
      "type": "VEC2"
    },
    {
      "bufferView": 1,
      "byteOffset": 60816,
      "componentType": 5126,
      "count": 3801,
      "max": [
        0.9869543313980103,
        0.9829496741294861
      ],
      "min": [
        0.013996647670865059,
        0.0032524229027330875
      ],
      "type": "VEC2"
    },
    {
      "bufferView": 1,
      "byteOffset": 91224,
      "componentType": 5126,
      "count": 3801,
      "max": [
        0.9869543313980103,
        0.9829496741294861
      ],
      "min": [
        0.013996647670865059,
        0.0032524229027330875
      ],
      "type": "VEC2"
    },
    {
      "bufferView": 0,
      "componentType": 5125,
      "count": 19302,
      "type": "SCALAR"
    }
  ],
  "asset": {
    "extras": {
      "author": "MaX3Dd (https://sketchfab.com/MaX3Dd)",
      "license": "CC-BY-4.0 (http://creativecommons.org/licenses/by/4.0/)",
      "source": "https://sketchfab.com/3d-models/old-medieval-sign-board-03ecf284721e4ca59ed84e8a56993f75",
      "title": "Old Medieval Sign Board"
    },
    "generator": "Sketchfab-16.59.0",
    "version": "2.0"
  },
  "bufferViews": [
    {
      "buffer": 0,
      "byteLength": 77208,
      "name": "floatBufferViews",
      "target": 34963
    },
    {
      "buffer": 0,
      "byteLength": 121632,
      "byteOffset": 77208,
      "byteStride": 8,
      "name": "floatBufferViews",
      "target": 34962
    },
    {
      "buffer": 0,
      "byteLength": 91224,
      "byteOffset": 198840,
      "byteStride": 12,
      "name": "floatBufferViews",
      "target": 34962
    },
    {
      "buffer": 0,
      "byteLength": 60816,
      "byteOffset": 290064,
      "byteStride": 16,
      "name": "floatBufferViews",
      "target": 34962
    }
  ],
  "buffers": [
    {
      "byteLength": 350880,
      "uri": "scene.bin"
    }
  ],
  "images": [
    {
      "uri": "textures/signboard_baseColor.png"
    },
    {
      "uri": "textures/signboard_metallicRoughness.png"
    },
    {
      "uri": "textures/signboard_normal.png"
    }
  ],
  "materials": [
    {
      "doubleSided": true,
      "name": "signboard",
      "normalTexture": {
        "index": 2
      },
      "occlusionTexture": {
        "index": 1
      },
      "pbrMetallicRoughness": {
        "baseColorTexture": {
          "index": 0
        },
        "metallicRoughnessTexture": {
          "index": 1
        }
      }
    }
  ],
  "meshes": [
    {
      "name": "signboard_signboard_0",
      "primitives": [
        {
          "attributes": {
            "NORMAL": 1,
            "POSITION": 0,
            "TANGENT": 2,
            "TEXCOORD_0": 3,
            "TEXCOORD_1": 4,
            "TEXCOORD_2": 5,
            "TEXCOORD_3": 6
          },
          "indices": 7,
          "material": 0,
          "mode": 4
        }
      ]
    }
  ],
  "nodes": [
    {
      "children": [
        1
      ],
      "matrix": [
        1.0,
        0.0,
        0.0,
        0.0,
        0.0,
        2.220446049250313e-16,
        -1.0,
        0.0,
        0.0,
        1.0,
        2.220446049250313e-16,
        0.0,
        0.0,
        0.0,
        0.0,
        1.0
      ],
      "name": "Sketchfab_model"
    },
    {
      "children": [
        2
      ],
      "matrix": [
        0.009999999776482582,
        0.0,
        0.0,
        0.0,
        0.0,
        0.0,
        0.009999999776482582,
        0.0,
        0.0,
        -0.009999999776482582,
        0.0,
        0.0,
        0.0,
        0.0,
        0.0,
        1.0
      ],
      "name": "signboard.fbx"
    },
    {
      "children": [
        3
      ],
      "name": "RootNode"
    },
    {
      "children": [
        4
      ],
      "matrix": [
        1.0,
        0.0,
        0.0,
        0.0,
        0.0,
        2.220446049250313e-16,
        -1.0,
        0.0,
        0.0,
        1.0,
        2.220446049250313e-16,
        0.0,
        0.0,
        21.8388729095459,
        0.0,
        1.0
      ],
      "name": "signboard"
    },
    {
      "mesh": 0,
      "name": "signboard_signboard_0"
    }
  ],
  "samplers": [
    {
      "magFilter": 9729,
      "minFilter": 9987,
      "wrapS": 10497,
      "wrapT": 10497
    }
  ],
  "scene": 0,
  "scenes": [
    {
      "name": "Sketchfab_Scene",
      "nodes": [
        0
      ]
    }
  ],
  "textures": [
    {
      "sampler": 0,
      "source": 0
    },
    {
      "sampler": 0,
      "source": 1
    },
    {
      "sampler": 0,
      "source": 2
    }
  ]
}
