{
  "accessors": [
    {
      "bufferView": 2,
      "componentType": 5126,
      "count": 244,
      "max": [
        351.4727783203125,
        215.0,
        -130.25648498535156
      ],
      "min": [
        249.37277221679688,
        -1.2999999523162842,
        -442.3564758300781
      ],
      "type": "VEC3"
    },
    {
      "bufferView": 2,
      "byteOffset": 2928,
      "componentType": 5126,
      "count": 244,
      "max": [
        5.65715438369916e-17,
        1.0,
        1.961335725922242e-17
      ],
      "min": [
        -5.65715438369916e-17,
        -1.0,
        -1.961335725922242e-17
      ],
      "type": "VEC3"
    },
    {
      "bufferView": 1,
      "componentType": 5126,
      "count": 244,
      "max": [
        2.754488945007324,
        3.4667437076568604
      ],
      "min": [
        -2.754488945007324,
        1.020818829536438
      ],
      "type": "VEC2"
    },
    {
      "bufferView": 1,
      "byteOffset": 1952,
      "componentType": 5126,
      "count": 244,
      "max": [
        2.754488945007324,
        3.4667437076568604
      ],
      "min": [
        -2.754488945007324,
        1.020818829536438
      ],
      "type": "VEC2"
    },
    {
      "bufferView": 1,
      "byteOffset": 3904,
      "componentType": 5126,
      "count": 244,
      "max": [
        2.754488945007324,
        3.4667437076568604
      ],
      "min": [
        -2.754488945007324,
        1.020818829536438
      ],
      "type": "VEC2"
    },
    {
      "bufferView": 1,
      "byteOffset": 5856,
      "componentType": 5126,
      "count": 244,
      "max": [
        2.754488945007324,
        3.4667437076568604
      ],
      "min": [
        -2.754488945007324,
        1.020818829536438
      ],
      "type": "VEC2"
    },
    {
      "bufferView": 1,
      "byteOffset": 7808,
      "componentType": 5126,
      "count": 244,
      "max": [
        2.754488945007324,
        3.4667437076568604
      ],
      "min": [
        -2.754488945007324,
        1.020818829536438
      ],
      "type": "VEC2"
    },
    {
      "bufferView": 1,
      "byteOffset": 9760,
      "componentType": 5126,
      "count": 244,
      "max": [
        2.754488945007324,
        3.4667437076568604
      ],
      "min": [
        -2.754488945007324,
        1.020818829536438
      ],
      "type": "VEC2"
    },
    {
      "bufferView": 1,
      "byteOffset": 11712,
      "componentType": 5126,
      "count": 244,
      "max": [
        2.754488945007324,
        3.4667437076568604
      ],
      "min": [
        -2.754488945007324,
        1.020818829536438
      ],
      "type": "VEC2"
    },
    {
      "bufferView": 1,
      "byteOffset": 13664,
      "componentType": 5126,
      "count": 244,
      "max": [
        2.754488945007324,
        3.4667437076568604
      ],
      "min": [
        -2.754488945007324,
        1.020818829536438
      ],
      "type": "VEC2"
    },
    {
      "bufferView": 1,
      "byteOffset": 15616,
      "componentType": 5126,
      "count": 244,
      "max": [
        2.754488945007324,
        3.4667437076568604
      ],
      "min": [
        -2.754488945007324,
        1.020818829536438
      ],
      "type": "VEC2"
    },
    {
      "bufferView": 1,
      "byteOffset": 17568,
      "componentType": 5126,
      "count": 244,
      "max": [
        2.754488945007324,
        3.4667437076568604
      ],
      "min": [
        -2.754488945007324,
        1.020818829536438
      ],
      "type": "VEC2"
    },
    {
      "bufferView": 0,
      "componentType": 5125,
      "count": 552,
      "type": "SCALAR"
    },
    {
      "bufferView": 2,
      "byteOffset": 5856,
      "componentType": 5126,
      "count": 3041,
      "max": [
        352.4727783203125,
        215.5,
        -129.25648498535156
      ],
      "min": [
        248.37277221679688,
        -7.199999809265137,
        -443.3564758300781
      ],
      "type": "VEC3"
    },
    {
      "bufferView": 2,
      "byteOffset": 42348,
      "componentType": 5126,
      "count": 3041,
      "max": [
        1.0,
        1.0,
        1.0
      ],
      "min": [
        -1.0,
        -1.0,
        -1.0
      ],
      "type": "VEC3"
    },
    {
      "bufferView": 1,
      "byteOffset": 19520,
      "componentType": 5126,
      "count": 3041,
      "max": [
        8.4610013961792,
        8.4610013961792
      ],
      "min": [
        -8.4610013961792,
        -0.13740457594394684
      ],
      "type": "VEC2"
    },
    {
      "bufferView": 1,
      "byteOffset": 43848,
      "componentType": 5126,
      "count": 3041,
      "max": [
        8.4610013961792,
        8.4610013961792
      ],
      "min": [
        -8.4610013961792,
        -0.13740457594394684
      ],
      "type": "VEC2"
    },
    {
      "bufferView": 1,
      "byteOffset": 68176,
      "componentType": 5126,
      "count": 3041,
      "max": [
        8.4610013961792,
        8.4610013961792
      ],
      "min": [
        -8.4610013961792,
        -0.13740457594394684
      ],
      "type": "VEC2"
    },
    {
      "bufferView": 1,
      "byteOffset": 92504,
      "componentType": 5126,
      "count": 3041,
      "max": [
        8.4610013961792,
        8.4610013961792
      ],
      "min": [
        -8.4610013961792,
        -0.13740457594394684
      ],
      "type": "VEC2"
    },
    {
      "bufferView": 1,
      "byteOffset": 116832,
      "componentType": 5126,
      "count": 3041,
      "max": [
        8.4610013961792,
        8.4610013961792
      ],
      "min": [
        -8.4610013961792,
        -0.13740457594394684
      ],
      "type": "VEC2"
    },
    {
      "bufferView": 1,
      "byteOffset": 141160,
      "componentType": 5126,
      "count": 3041,
      "max": [
        8.4610013961792,
        8.4610013961792
      ],
      "min": [
        -8.4610013961792,
        -0.13740457594394684
      ],
      "type": "VEC2"
    },
    {
      "bufferView": 1,
      "byteOffset": 165488,
      "componentType": 5126,
      "count": 3041,
      "max": [
        8.4610013961792,
        8.4610013961792
      ],
      "min": [
        -8.4610013961792,
        -0.13740457594394684
      ],
      "type": "VEC2"
    },
    {
      "bufferView": 1,
      "byteOffset": 189816,
      "componentType": 5126,
      "count": 3041,
      "max": [
        8.4610013961792,
        8.4610013961792
      ],
      "min": [
        -8.4610013961792,
        -0.13740457594394684
      ],
      "type": "VEC2"
    },
    {
      "bufferView": 1,
      "byteOffset": 214144,
      "componentType": 5126,
      "count": 3041,
      "max": [
        8.4610013961792,
        8.4610013961792
      ],
      "min": [
        -8.4610013961792,
        -0.13740457594394684
      ],
      "type": "VEC2"
    },
    {
      "bufferView": 1,
      "byteOffset": 238472,
      "componentType": 5126,
      "count": 3041,
      "max": [
        8.4610013961792,
        8.4610013961792
      ],
      "min": [
        -8.4610013961792,
        -0.13740457594394684
      ],
      "type": "VEC2"
    },
    {
      "bufferView": 0,
      "byteOffset": 2208,
      "componentType": 5125,
      "count": 5757,
      "type": "SCALAR"
    },
    {
      "bufferView": 2,
      "byteOffset": 78840,
      "componentType": 5126,
      "count": 160,
      "max": [
        351.4727783203125,
        162.0,
        -130.25648498535156
      ],
      "min": [
        249.37277221679688,
        51.70000076293945,
        -442.3564758300781
      ],
      "type": "VEC3"
    },
    {
      "bufferView": 2,
      "byteOffset": 80760,
      "componentType": 5126,
      "count": 160,
      "max": [
        1.6357705724494976e-16,
        1.0,
        1.9392607569150393e-17
      ],
      "min": [
        -1.6357705724494976e-16,
        -1.0,
        -1.9392607569150393e-17
      ],
      "type": "VEC3"
    },
    {
      "bufferView": 1,
      "byteOffset": 262800,
      "componentType": 5126,
      "count": 160,
      "max": [
        2.754488945007324,
        2.3579769134521484
      ],
      "min": [
        -2.754488945007324,
        0.6943309307098389
      ],
      "type": "VEC2"
    },
    {
      "bufferView": 1,
      "byteOffset": 264080,
      "componentType": 5126,
      "count": 160,
      "max": [
        2.754488945007324,
        2.3579769134521484
      ],
      "min": [
        -2.754488945007324,
        0.6943309307098389
      ],
      "type": "VEC2"
    },
    {
      "bufferView": 1,
      "byteOffset": 265360,
      "componentType": 5126,
      "count": 160,
      "max": [
        2.754488945007324,
        2.3579769134521484
      ],
      "min": [
        -2.754488945007324,
        0.6943309307098389
      ],
      "type": "VEC2"
    },
    {
      "bufferView": 1,
      "byteOffset": 266640,
      "componentType": 5126,
      "count": 160,
      "max": [
        2.754488945007324,
        2.3579769134521484
      ],
      "min": [
        -2.754488945007324,
        0.6943309307098389
      ],
      "type": "VEC2"
    },
    {
      "bufferView": 1,
      "byteOffset": 267920,
      "componentType": 5126,
      "count": 160,
      "max": [
        2.754488945007324,
        2.3579769134521484
      ],
      "min": [
        -2.754488945007324,
        0.6943309307098389
      ],
      "type": "VEC2"
    },
    {
      "bufferView": 1,
      "byteOffset": 269200,
      "componentType": 5126,
      "count": 160,
      "max": [
        2.754488945007324,
        2.3579769134521484
      ],
      "min": [
        -2.754488945007324,
        0.6943309307098389
      ],
      "type": "VEC2"
    },
    {
      "bufferView": 1,
      "byteOffset": 270480,
      "componentType": 5126,
      "count": 160,
      "max": [
        2.754488945007324,
        2.3579769134521484
      ],
      "min": [
        -2.754488945007324,
        0.6943309307098389
      ],
      "type": "VEC2"
    },
    {
      "bufferView": 1,
      "byteOffset": 271760,
      "componentType": 5126,
      "count": 160,
      "max": [
        2.754488945007324,
        2.3579769134521484
      ],
      "min": [
        -2.754488945007324,
        0.6943309307098389
      ],
      "type": "VEC2"
    },
    {
      "bufferView": 1,
      "byteOffset": 273040,
      "componentType": 5126,
      "count": 160,
      "max": [
        2.754488945007324,
        2.3579769134521484
      ],
      "min": [
        -2.754488945007324,
        0.6943309307098389
      ],
      "type": "VEC2"
    },
    {
      "bufferView": 1,
      "byteOffset": 274320,
      "componentType": 5126,
      "count": 160,
      "max": [
        2.754488945007324,
        2.3579769134521484
      ],
      "min": [
        -2.754488945007324,
        0.6943309307098389
      ],
      "type": "VEC2"
    },
    {
      "bufferView": 0,
      "byteOffset": 25236,
      "componentType": 5125,
      "count": 360,
      "type": "SCALAR"
    },
    {
      "bufferView": 2,
      "byteOffset": 82680,
      "componentType": 5126,
      "count": 160,
      "max": [
        351.4727783203125,
        215.0,
        -130.25648498535156
      ],
      "min": [
        249.37277221679688,
        1.0,
        -442.3564758300781
      ],
      "type": "VEC3"
    },
    {
      "bufferView": 2,
      "byteOffset": 84600,
      "componentType": 5126,
      "count": 160,
      "max": [
        1.0,
        2.560213003932744e-29,
        1.0
      ],
      "min": [
        -1.0,
        -2.560213003932744e-29,
        -1.0
      ],
      "type": "VEC3"
    },
    {
      "bufferView": 1,
      "byteOffset": 275600,
      "componentType": 5126,
      "count": 160,
      "max": [
        6.454977512359619,
        3.1804733276367188
      ],
      "min": [
        -6.454977512359619,
        0.01479289960116148
      ],
      "type": "VEC2"
    },
    {
      "bufferView": 1,
      "byteOffset": 276880,
      "componentType": 5126,
      "count": 160,
      "max": [
        6.454977512359619,
        3.1804733276367188
      ],
      "min": [
        -6.454977512359619,
        0.01479289960116148
      ],
      "type": "VEC2"
    },
    {
      "bufferView": 1,
      "byteOffset": 278160,
      "componentType": 5126,
      "count": 160,
      "max": [
        6.454977512359619,
        3.1804733276367188
      ],
      "min": [
        -6.454977512359619,
        0.01479289960116148
      ],
      "type": "VEC2"
    },
    {
      "bufferView": 1,
      "byteOffset": 279440,
      "componentType": 5126,
      "count": 160,
      "max": [
        6.454977512359619,
        3.1804733276367188
      ],
      "min": [
        -6.454977512359619,
        0.01479289960116148
      ],
      "type": "VEC2"
    },
    {
      "bufferView": 1,
      "byteOffset": 280720,
      "componentType": 5126,
      "count": 160,
      "max": [
        6.454977512359619,
        3.1804733276367188
      ],
      "min": [
        -6.454977512359619,
        0.01479289960116148
      ],
      "type": "VEC2"
    },
    {
      "bufferView": 1,
      "byteOffset": 282000,
      "componentType": 5126,
      "count": 160,
      "max": [
        6.454977512359619,
        3.1804733276367188
      ],
      "min": [
        -6.454977512359619,
        0.01479289960116148
      ],
      "type": "VEC2"
    },
    {
      "bufferView": 1,
      "byteOffset": 283280,
      "componentType": 5126,
      "count": 160,
      "max": [
        6.454977512359619,
        3.1804733276367188
      ],
      "min": [
        -6.454977512359619,
        0.01479289960116148
      ],
      "type": "VEC2"
    },
    {
      "bufferView": 1,
      "byteOffset": 284560,
      "componentType": 5126,
      "count": 160,
      "max": [
        6.454977512359619,
        3.1804733276367188
      ],
      "min": [
        -6.454977512359619,
        0.01479289960116148
      ],
      "type": "VEC2"
    },
    {
      "bufferView": 1,
      "byteOffset": 285840,
      "componentType": 5126,
      "count": 160,
      "max": [
        6.454977512359619,
        3.1804733276367188
      ],
      "min": [
        -6.454977512359619,
        0.01479289960116148
      ],
      "type": "VEC2"
    },
    {
      "bufferView": 1,
      "byteOffset": 287120,
      "componentType": 5126,
      "count": 160,
      "max": [
        6.454977512359619,
        3.1804733276367188
      ],
      "min": [
        -6.454977512359619,
        0.01479289960116148
      ],
      "type": "VEC2"
    },
    {
      "bufferView": 0,
      "byteOffset": 26676,
      "componentType": 5125,
      "count": 240,
      "type": "SCALAR"
    }
  ],
  "asset": {
    "extras": {
      "author": "ilaida (https://sketchfab.com/ilaida)",
      "license": "CC-BY-4.0 (http://creativecommons.org/licenses/by/4.0/)",
      "source": "https://sketchfab.com/3d-models/rack-33a4b088025e48098eabd4b2b18122aa",
      "title": "Rack"
    },
    "generator": "Sketchfab-12.68.0",
    "version": "2.0"
  },
  "bufferViews": [
    {
      "buffer": 0,
      "byteLength": 27636,
      "name": "floatBufferViews",
      "target": 34963
    },
    {
      "buffer": 0,
      "byteLength": 288400,
      "byteOffset": 27636,
      "byteStride": 8,
      "name": "floatBufferViews",
      "target": 34962
    },
    {
      "buffer": 0,
      "byteLength": 86520,
      "byteOffset": 316036,
      "byteStride": 12,
      "name": "floatBufferViews",
      "target": 34962
    }
  ],
  "buffers": [
    {
      "byteLength": 402556,
      "uri": "scene.bin"
    }
  ],
  "images": [
    {
      "uri": "textures/Wood_Plywood_Knots_baseColor.jpeg"
    },
    {
      "uri": "textures/material_baseColor.jpeg"
    },
    {
      "uri": "textures/material_2_baseColor.jpeg"
    },
    {
      "uri": "textures/material_3_baseColor.jpeg"
    }
  ],
  "materials": [
    {
      "doubleSided": true,
      "name": "Wood_Plywood_Knots",
      "pbrMetallicRoughness": {
        "baseColorTexture": {
          "index": 0
        },
        "metallicFactor": 0.0,
        "roughnessFactor": 0.9302134966129227
      }
    },
    {
      "doubleSided": true,
      "name": "material",
      "pbrMetallicRoughness": {
        "baseColorTexture": {
          "index": 1
        },
        "metallicFactor": 0.0,
        "roughnessFactor": 0.9302134966129227
      }
    },
    {
      "doubleSided": true,
      "name": "material_2",
      "pbrMetallicRoughness": {
        "baseColorTexture": {
          "index": 2
        },
        "metallicFactor": 0.0,
        "roughnessFactor": 0.9302134966129227
      }
    },
    {
      "doubleSided": true,
      "name": "material_3",
      "pbrMetallicRoughness": {
        "baseColorTexture": {
          "index": 3
        },
        "metallicFactor": 0.0,
        "roughnessFactor": 0.9302134966129227
      }
    }
  ],
  "meshes": [
    {
      "name": "Mesh1_Wood_Plywood_Knots_0",
      "primitives": [
        {
          "attributes": {
            "NORMAL": 1,
            "POSITION": 0,
            "TEXCOORD_0": 2,
            "TEXCOORD_1": 3,
            "TEXCOORD_2": 4,
            "TEXCOORD_3": 5,
            "TEXCOORD_4": 6,
            "TEXCOORD_5": 7,
            "TEXCOORD_6": 8,
            "TEXCOORD_7": 9,
            "TEXCOORD_8": 10,
            "TEXCOORD_9": 11
          },
          "indices": 12,
          "material": 0,
          "mode": 4
        }
      ]
    },
    {
      "name": "Mesh1__1_0",
      "primitives": [
        {
          "attributes": {
            "NORMAL": 14,
            "POSITION": 13,
            "TEXCOORD_0": 15,
            "TEXCOORD_1": 16,
            "TEXCOORD_2": 17,
            "TEXCOORD_3": 18,
            "TEXCOORD_4": 19,
            "TEXCOORD_5": 20,
            "TEXCOORD_6": 21,
            "TEXCOORD_7": 22,
            "TEXCOORD_8": 23,
            "TEXCOORD_9": 24
          },
          "indices": 25,
          "material": 1,
          "mode": 4
        }
      ]
    },
    {
      "name": "Mesh1__3_0",
      "primitives": [
        {
          "attributes": {
            "NORMAL": 27,
            "POSITION": 26,
            "TEXCOORD_0": 28,
            "TEXCOORD_1": 29,
            "TEXCOORD_2": 30,
            "TEXCOORD_3": 31,
            "TEXCOORD_4": 32,
            "TEXCOORD_5": 33,
            "TEXCOORD_6": 34,
            "TEXCOORD_7": 35,
            "TEXCOORD_8": 36,
            "TEXCOORD_9": 37
          },
          "indices": 38,
          "material": 2,
          "mode": 4
        }
      ]
    },
    {
      "name": "Mesh1__2_0",
      "primitives": [
        {
          "attributes": {
            "NORMAL": 40,
            "POSITION": 39,
            "TEXCOORD_0": 41,
            "TEXCOORD_1": 42,
            "TEXCOORD_2": 43,
            "TEXCOORD_3": 44,
            "TEXCOORD_4": 45,
            "TEXCOORD_5": 46,
            "TEXCOORD_6": 47,
            "TEXCOORD_7": 48,
            "TEXCOORD_8": 49,
            "TEXCOORD_9": 50
          },
          "indices": 51,
          "material": 3,
          "mode": 4
        }
      ]
    }
  ],
  "nodes": [
    {
      "children": [
        1
      ],
      "matrix": [
        1.0,
        0.0,
        0.0,
        0.0,
        0.0,
        2.220446049250313e-16,
        -1.0,
        0.0,
        0.0,
        1.0,
        2.220446049250313e-16,
        0.0,
        0.0,
        0.0,
        0.0,
        1.0
      ],
      "name": "Sketchfab_model"
    },
    {
      "children": [
        2
      ],
      "matrix": [
        1.0,
        0.0,
        0.0,
        0.0,
        0.0,
        0.0,
        1.0,
        0.0,
        0.0,
        -1.0,
        0.0,
        0.0,
        0.0,
        0.0,
        0.0,
        1.0
      ],
      "name": "Rack.fbx"
    },
    {
      "children": [
        3
      ],
      "name": "RootNode"
    },
    {
      "children": [
        4
      ],
      "name": "Model"
    },
    {
      "children": [
        5,
        6,
        7,
        8
      ],
      "name": "Mesh1"
    },
    {
      "mesh": 0,
      "name": "Mesh1_Wood_Plywood_Knots_0"
    },
    {
      "mesh": 1,
      "name": "Mesh1__1_0"
    },
    {
      "mesh": 2,
      "name": "Mesh1__3_0"
    },
    {
      "mesh": 3,
      "name": "Mesh1__2_0"
    }
  ],
  "samplers": [
    {
      "magFilter": 9729,
      "minFilter": 9987,
      "wrapS": 10497,
      "wrapT": 10497
    }
  ],
  "scene": 0,
  "scenes": [
    {
      "name": "Sketchfab_Scene",
      "nodes": [
        0
      ]
    }
  ],
  "textures": [
    {
      "sampler": 0,
      "source": 0
    },
    {
      "sampler": 0,
      "source": 1
    },
    {
      "sampler": 0,
      "source": 2
    },
    {
      "sampler": 0,
      "source": 3
    }
  ]
}
